<?xml version="1.0" encoding="UTF-8"?>
<svg width="320px" height="320px" viewBox="0 0 320 320" version="1.1" xmlns="http://www.w3.org/2000/svg" xmlns:xlink="http://www.w3.org/1999/xlink">
    <!-- Generator: Sketch 62 (91390) - https://sketch.com -->
    <title>logo</title>
    <desc>Created with Sketch.</desc>
    <g id="Page-1" stroke="none" stroke-width="1" fill="none" fill-rule="evenodd">
        <g id="logo" fill-rule="nonzero">
            <rect id="Rectangle-path" fill="#FEDCA1" x="0.36658695" y="0.359724487" width="319.600499" height="319.600499"></rect>
            <path d="M190.839428,120.289035 C188.614702,122.513761 185.007707,122.513761 182.78298,120.289035 C180.558253,118.064308 180.558253,114.457313 182.78298,112.232586 L222.363966,72.6516008 C224.588692,70.426874 228.195687,70.426874 230.420414,72.6516008 C232.645141,74.8763276 232.645141,78.4833224 230.420414,80.7080488 L190.839428,120.289035 Z" id="Shape" fill="#FCB138"></path>
            <path d="M206.799503,133.495997 C204.574776,135.720724 200.967782,135.720724 198.743055,133.495997 C196.518328,131.27127 196.518328,127.664275 198.743055,125.439548 L213.226823,110.95578 C215.45155,108.731054 219.058544,108.731054 221.283271,110.95578 C223.507998,113.180507 223.507998,116.787502 221.283271,119.012229 L206.799503,133.495997 Z" id="Shape" fill="#FCB138"></path>
            <path d="M190.839428,90.7229964 C188.614702,92.9477228 185.007707,92.9477228 182.78298,90.7229964 C180.558253,88.4982692 180.558253,84.8912748 182.78298,82.666548 L199.580959,65.8685692 C201.805686,63.6438424 205.41268,63.6438424 207.637407,65.8685692 C209.862134,68.0932956 209.862134,71.7002908 207.637407,73.9250172 L190.839428,90.7229964 Z" id="Shape" fill="#FCB138"></path>
            <path d="M178.071368,191.590669 C175.846642,193.815396 172.239647,193.815396 170.01492,191.590669 C167.790194,189.365942 167.790194,185.758948 170.01492,183.534221 L226.633286,126.915856 C228.858012,124.691129 232.465007,124.691129 234.689734,126.915856 C236.91446,129.140582 236.91446,132.747577 234.689734,134.972304 L178.071368,191.590669 Z" id="Shape" fill="#FCB138"></path>
            <path d="M234.729634,193.386178 C232.504907,195.610904 228.897913,195.610904 226.673186,193.386178 C224.448459,191.161451 224.448459,187.554456 226.673186,185.32973 L229.6258,182.377116 C231.850526,180.152389 235.457521,180.152389 237.682248,182.377116 C239.906975,184.601842 239.906975,188.208837 237.682248,190.433564 L234.729634,193.386178 Z" id="Shape" fill="#FCB138"></path>
            <path d="M208.407848,190.301488 C206.189956,192.533028 202.582978,192.544093 200.351438,190.326201 C198.119897,188.108309 198.108833,184.501331 200.326725,182.269791 L213.294286,169.22243 C215.512178,166.990889 219.119156,166.979824 221.350696,169.197716 C223.582237,171.415608 223.593301,175.022586 221.375409,177.254127 L208.407848,190.301488 Z" id="Shape" fill="#FCB138"></path>
            <path d="M192.019914,147.956318 C189.7861,150.17192 186.179136,150.157158 183.963533,147.923345 C181.74793,145.689531 181.762693,142.082567 183.996506,139.866964 L198.679775,125.303396 C200.913588,123.087793 204.520553,123.102555 206.736156,125.336368 C208.951759,127.570182 208.936996,131.177146 206.703183,133.392749 L192.019914,147.956318 Z" id="Shape" fill="#FCB138"></path>
            <path d="M101.430128,180.211832 C99.1873884,182.418399 95.5805128,182.389075 93.373946,180.146335 C91.1673796,177.903595 91.1967036,174.29672 93.4394436,172.090153 L100.860878,164.788419 C103.103618,162.581852 106.710494,162.611176 108.91706,164.853916 C111.123627,167.096656 111.094303,170.703532 108.851563,172.910098 L101.430128,180.211832 Z" id="Shape" fill="#FCB138"></path>
            <path d="M86.7272492,165.428552 C84.517708,167.668361 80.9107968,167.692898 78.6709876,165.483357 C76.4311788,163.273815 76.4066416,159.666904 78.6161832,157.427095 L81.5288968,154.474481 C83.738438,152.234672 87.3453496,152.210135 89.5851584,154.419676 C91.824968,156.629218 91.8495044,160.236129 89.6399632,162.475938 L86.7272492,165.428552 Z" id="Shape" fill="#FCB138"></path>
            <path d="M117.432208,193.297233 C115.212532,195.526998 111.605546,195.535178 109.37578,193.315501 C107.146015,191.095825 107.137835,187.48884 109.357512,185.259074 L126.913594,167.623191 C129.13327,165.393426 132.740256,165.385246 134.970022,167.604923 C137.199788,169.824599 137.207966,173.431584 134.98829,175.66135 L117.432208,193.297233 Z" id="Shape" fill="#FCB138"></path>
            <path d="M120.615099,219.441 C118.390372,221.665727 114.783377,221.665727 112.55865,219.441 C110.333924,217.216273 110.333924,213.609278 112.55865,211.384552 L138.374072,185.56913 C140.598798,183.344404 144.205793,183.344404 146.43052,185.56913 C148.655246,187.793857 148.655246,191.400852 146.43052,193.625579 L120.615099,219.441 Z" id="Shape" fill="#FCB138"></path>
            <path d="M145.353215,253.63546 C143.128488,255.860187 139.521493,255.860187 137.296767,253.63546 C135.07204,251.410734 135.07204,247.803739 137.296767,245.579012 L140.24938,242.626398 C142.474107,240.401672 146.081102,240.401672 148.305828,242.626398 C150.530556,244.851125 150.530556,248.45812 148.305828,250.682846 L145.353215,253.63546 Z" id="Shape" fill="#FCB138"></path>
            <path d="M130.58853,238.953807 C128.36291,241.177641 124.755916,241.176194 122.532082,238.950575 C120.308248,236.724956 120.309694,233.117962 122.535314,230.894128 L172.290847,181.178494 C174.516466,178.95466 178.12346,178.956107 180.347294,181.181726 C182.571128,183.407345 182.569682,187.01434 180.344063,189.238174 L130.58853,238.953807 Z" id="Shape" fill="#FCB138"></path>
            <path d="M93.8751052,217.013945 C91.6465916,219.234879 88.039602,219.228734 85.8186688,217.00022 C83.5977352,214.771707 83.60388,211.164717 85.8323936,208.943784 L109.293703,185.562274 C111.522217,183.34134 115.129206,183.347485 117.35014,185.575999 C119.571073,187.804512 119.564929,191.411502 117.336415,193.632436 L93.8751052,217.013945 Z" id="Shape" fill="#FCB138"></path>
            <path d="M190.84441,237.470896 C188.622439,239.698375 185.015447,239.702839 182.787969,237.480867 C180.56049,235.258895 180.556026,231.651903 182.777998,229.424425 L214.977448,197.145173 C217.19942,194.917695 220.806412,194.913231 223.033891,197.135202 C225.261369,199.357174 225.265833,202.964166 223.043862,205.191645 L190.84441,237.470896 Z" id="Shape" fill="#FCB138"></path>
            <path d="M216.77455,240.7876 C214.549823,243.012327 210.942828,243.012327 208.718102,240.7876 C206.493375,238.562873 206.493375,234.955879 208.718102,232.731152 L213.984926,227.464327 C216.209653,225.2396 219.816648,225.2396 222.041375,227.464327 C224.266101,229.689054 224.266101,233.296049 222.041375,235.520776 L216.77455,240.7876 Z" id="Shape" fill="#FCB138"></path>
            <path d="M166.750368,69.8967932 C166.750368,66.7505548 169.300898,64.200024 172.447137,64.200024 C175.593376,64.200024 178.143906,66.7505548 178.143906,69.8967932 L178.143906,70.2977848 C178.143906,73.4440236 175.593376,75.9945544 172.447137,75.9945544 C169.300898,75.9945544 166.750368,73.4440236 166.750368,70.2977848 L166.750368,69.8967932 Z" id="Shape-Copy" fill="#FCB138"></path>
            <path d="M145.353215,253.51576 C143.128488,255.740486 139.521493,255.740486 137.296767,253.51576 C135.07204,251.291033 135.07204,247.684038 137.296767,245.459312 L185.615893,197.140185 C187.84062,194.915458 191.447615,194.915458 193.672342,197.140185 C195.897068,199.364912 195.897068,202.971906 193.672342,205.196633 L145.353215,253.51576 Z" id="Shape" fill="#FCB138"></path>
            <path d="M220.688158,67.5409872 C218.463432,65.3162608 218.463432,61.709266 220.688158,59.4845392 C222.912885,57.2598124 226.51988,57.2598124 228.744606,59.4845392 C235.042468,65.7824004 235.042468,75.988236 228.724714,82.2440504 C226.489056,84.4577912 222.882104,84.4400232 220.668364,82.204364 C218.454623,79.9687052 218.472392,76.3617544 220.70805,74.1480136 C222.529935,72.3439904 222.529935,69.3827644 220.688158,67.5409872 Z" id="Shape" fill="#FCB138"></path>
            <path d="M93.2875208,171.825301 C95.5663528,169.656028 99.1722544,169.744844 101.341527,172.023676 C103.5108,174.302508 103.421984,177.908408 101.143152,180.077681 C94.7391416,186.173806 84.6933108,186.230562 78.5038436,179.979715 C72.2059824,173.681854 72.2059824,163.476018 78.5237356,157.220204 C80.7593948,155.006463 84.3663456,155.024231 86.580086,157.25989 C88.7938268,159.495549 88.7760588,163.1025 86.5403996,165.316241 C84.7185152,167.120264 84.7185152,170.08149 86.580086,171.943159 C88.3489764,173.729563 91.3046264,173.712864 93.2875208,171.825301 Z" id="Shape" fill="#FCB138"></path>
            <path d="M182.803589,82.5286928 C185.08242,80.35942 188.688322,80.4482352 190.857594,82.7270672 C193.026867,85.0058992 192.938052,88.6118 190.65922,90.7810724 C184.255209,96.877198 174.209378,96.933954 168.000117,90.6632144 C165.786376,88.4275556 165.804144,84.8206048 168.039804,82.6068644 C170.275462,80.3931232 173.882413,80.4108916 176.096154,82.6465508 C177.865044,84.4329544 180.820694,84.416256 182.803589,82.5286928 Z" id="Shape" fill="#FCB138"></path>
            <path d="M221.063173,118.926274 C218.784341,121.095546 215.17844,121.006732 213.009167,118.7279 C210.839894,116.449068 210.92871,112.843167 213.207542,110.673894 C219.611552,104.577769 229.657383,104.521013 235.866645,110.791752 C238.080385,113.027411 238.062617,116.634362 235.826958,118.848103 C233.591299,121.061843 229.984348,121.044075 227.770608,118.808416 C226.001718,117.022012 223.046068,117.038711 221.063173,118.926274 Z" id="Shape" fill="#FCB138"></path>
            <path d="M221.063173,177.58202 C218.784341,179.751293 215.17844,179.662478 213.009167,177.383646 C210.839894,175.104814 210.92871,171.498913 213.207542,169.32964 C219.611552,163.233515 229.657383,163.176759 235.84685,169.427606 C242.144712,175.725468 242.144712,185.931303 235.826958,192.187118 C233.591299,194.400858 229.984348,194.38309 227.770608,192.147431 C225.556867,189.911772 225.574635,186.304821 227.810294,184.091081 C229.632179,182.287058 229.632179,179.325832 227.770608,177.464162 C226.001718,175.677758 223.046068,175.694457 221.063173,177.58202 Z" id="Shape" fill="#FCB138"></path>
            <path d="M120.115699,161.222944 C117.836867,163.392216 114.230966,163.303401 112.061694,161.024569 C109.892421,158.745738 109.981236,155.139836 112.260068,152.970564 C118.664078,146.874438 128.70991,146.817682 134.899376,153.06853 C141.197238,159.366391 141.197238,169.572226 134.879485,175.828041 C132.643826,178.041782 129.036875,178.024014 126.823134,175.788354 C124.609394,173.552696 124.627162,169.945745 126.86282,167.732004 C128.684705,165.927981 128.684705,162.966755 126.823134,161.105086 C125.054244,159.318682 122.098594,159.33538 120.115699,161.222944 Z" id="Shape" fill="#FCB138"></path>
            <path d="M184.259948,139.905151 C186.53878,137.735878 190.144681,137.824694 192.313954,140.103526 C194.483226,142.382358 194.394411,145.988259 192.115579,148.157532 C185.711568,154.253656 175.665738,154.310413 169.476271,148.059566 C163.178409,141.761704 163.178409,131.555869 169.496162,125.300054 C171.731822,123.086313 175.338772,123.104082 177.552513,125.33974 C179.766254,127.5754 179.748486,131.18235 177.512826,133.396091 C175.690942,135.200114 175.690942,138.16134 177.552513,140.023009 C179.321404,141.809414 182.277053,141.792715 184.259948,139.905151 Z" id="Shape" fill="#FCB138"></path>
            <path d="M197.42701,243.645638 C199.705842,241.476365 203.311743,241.565181 205.481015,243.844012 C207.650288,246.122844 207.561472,249.728746 205.282641,251.898018 C198.87863,257.994143 188.8328,258.0509 182.643332,251.800052 C176.345471,245.502191 176.345471,235.296355 182.663224,229.040541 C184.898883,226.8268 188.505834,226.844568 190.719575,229.080227 C192.933315,231.315886 192.915547,234.922837 190.679888,237.136578 C188.858004,238.940601 188.858004,241.901827 190.719575,243.763496 C192.488465,245.5499 195.444115,245.533202 197.42701,243.645638 Z" id="Shape" fill="#FCB138"></path>
            <path d="M137.177727,245.241646 C139.456559,243.072373 143.06246,243.161188 145.231733,245.44002 C147.401005,247.718852 147.31219,251.324753 145.033358,253.494026 C138.629348,259.590151 128.583517,259.646907 122.39405,253.39606 C116.096188,247.098198 116.096188,236.892363 122.413942,230.636548 C124.6496,228.422808 128.256552,228.440576 130.470292,230.676235 C132.684033,232.911894 132.666265,236.518845 130.430606,238.732585 C128.608721,240.536608 128.608721,243.497834 130.470292,245.359504 C132.239182,247.145908 135.194832,247.129209 137.177727,245.241646 Z" id="Shape" fill="#FCB138"></path>
            <path d="M100.868557,223.296542 C103.147388,221.12727 106.75329,221.216085 108.922562,223.494917 C111.091835,225.773749 111.00302,229.37965 108.724188,231.548923 C102.320177,237.645048 92.2743464,237.701804 86.0848792,231.450957 C79.7870184,225.153096 79.7870184,214.94726 86.1047716,208.691445 C88.34043,206.477704 91.9473812,206.495473 94.1611216,208.731132 C96.3748628,210.966791 96.3570944,214.573742 94.1214356,216.787482 C92.2995504,218.591506 92.2995504,221.552732 94.1611216,223.414401 C95.930012,225.200804 98.8856616,225.184106 100.868557,223.296542 Z" id="Shape" fill="#FCB138"></path>
        </g>
    </g>
</svg>