<?xml version="1.0" encoding="UTF-8"?>
<svg width="320px" height="320px" viewBox="0 0 320 320" version="1.1" xmlns="http://www.w3.org/2000/svg" xmlns:xlink="http://www.w3.org/1999/xlink">
    <!-- Generator: Sketch 62 (91390) - https://sketch.com -->
    <title>avatar</title>
    <desc>Created with Sketch.</desc>
    <g id="Page-1" stroke="none" stroke-width="1" fill="none" fill-rule="evenodd">
        <g id="avatar">
            <rect id="Rectangle-25-Copy-6-Copy-3" fill="#FFD3D9" fill-rule="nonzero" x="0.0181957351" y="0.0679104818" width="319.68032" height="319.68032"></rect>
            <g id="Group-11" transform="translate(82.624130, 58.068962)">
                <path d="M9.28592517,116.139282 C11.271387,92.4223325 14.799372,40.8726752 14.799372,62.3602698 L14.799372,82.9636383 L16.7770077,82.9636383 C27.8877247,82.9636383 31.2086558,90.7709964 31.2086558,99.3966392 C31.2086558,107.355169 31.2086558,116.086118 19.8731714,122.584934 C20.0118516,123.19904 20.0850529,123.837966 20.0850529,124.493989 C20.0850529,129.260031 16.2214122,133.123672 11.4553698,133.123672 C6.68932737,133.123672 2.82568662,129.260031 2.82568662,124.493989 C2.82568662,120.477234 5.56998652,117.101445 9.28592517,116.139282 Z" id="Combined-Shape-Copy-2" fill="#E8A191" fill-rule="nonzero" transform="translate(17.017171, 95.179775) scale(-1, 1) rotate(-4.000000) translate(-17.017171, -95.179775) "></path>
                <path d="M14.622231,134.02119 C13.9096883,134.02119 13.553417,133.664919 13.553417,132.952376 L13.553417,126.460321 C13.553417,125.747778 13.9096883,125.391507 14.622231,125.391507 L21.1142862,125.391507 C21.8268289,125.391507 22.1831002,125.747778 22.1831002,126.460321 L22.1831002,132.952376 C22.1831002,133.664919 21.8268289,134.02119 21.1142862,134.02119 L14.622231,134.02119 Z" id="Shape_6_-Copy-4" fill="#FCB138" fill-rule="nonzero"></path>
                <path d="M125.489088,132.449376 C124.297658,146.291658 119.493752,153.141031 113.112149,162.208419 C89.9392681,195.133918 76.432407,204.384705 48.2327816,204.384705 C38.5586871,204.384705 23.7604773,200.198147 19.5675131,162.208419 L11.0364261,62.5527832 C11.0364261,28.8374801 21.82353,0.131408312 70.1857125,0.131408312 C116.92983,0.131408312 132.607087,32.651278 132.607087,62.5527832 L132.607087,83.1561517 L134.584723,83.1561517 C145.69544,83.1561517 149.016371,90.9635098 149.016371,99.5891523 C149.016371,107.547682 149.016371,116.278631 137.680887,122.777447 C137.819567,123.391553 137.892768,124.030479 137.892768,124.686502 C137.892768,129.452544 134.029128,133.316185 129.263085,133.316185 C127.909722,133.316185 126.629123,133.004648 125.489088,132.449376 Z" id="Combined-Shape" fill="#E8A191" fill-rule="nonzero"></path>
                <path d="M126.431783,134.02119 C125.71924,134.02119 125.362969,133.664919 125.362969,132.952376 L125.362969,126.460321 C125.362969,125.747778 125.71924,125.391507 126.431783,125.391507 L132.923838,125.391507 C133.636381,125.391507 133.992652,125.747778 133.992652,126.460321 L133.992652,132.952376 C133.992652,133.664919 133.636381,134.02119 132.923838,134.02119 L126.431783,134.02119 Z" id="Shape_6_-Copy-3" fill="#FCB138" fill-rule="nonzero"></path>
                <g id="Group-10" stroke-linecap="round" stroke-linejoin="round" transform="translate(134.016937, 102.663194) rotate(28.000000) translate(-134.016937, -102.663194) translate(126.516937, 93.663194)" stroke="#BC776C" stroke-width="7.19140261">
                    <path d="M0.287656105,4.01476571 C9.02112838,-7.41488291 16.1987928,10.0229147 14.0158773,17.5194083" id="Shape_8_-Copy-3"></path>
                    <path d="M0.509473215,4.10425191 C7.15780213,1.85150049 13.594507,8.41339617 5.50568069,15.7940116" id="Shape_9_-Copy-3"></path>
                </g>
                <path d="M27.7204802,83.4797647 C26.4260277,83.4797647 24.7720051,82.5089253 24.7720051,80.5312895 C24.7720051,79.5604504 25.4192313,78.553654 26.0664576,78.2300407 C25.4192313,77.9064277 25.0956182,77.9064277 24.448392,77.9064277 C21.1763038,77.9064277 18.5514418,80.2076765 18.5514418,83.8033777 C18.5514418,87.399079 20.8526907,89.7003278 24.448392,89.7003278 C27.7204802,89.7003278 30.3453421,87.399079 30.3453421,83.8033777 C30.3453421,83.1561517 30.3453421,82.8325383 30.021729,82.1853123 C29.3745028,83.1561517 28.6913195,83.4797647 27.7204802,83.4797647 Z" id="Shape_10_-Copy-3" stroke="#7F4B4F" stroke-width="1.63669132" fill="#7F4B4F" fill-rule="nonzero" stroke-linecap="round" stroke-linejoin="round"></path>
                <path d="M75.9568134,83.4797647 C74.6623607,83.4797647 73.0083382,82.5089253 73.0083382,80.5312895 C73.0083382,79.5604504 73.6555643,78.553654 74.3027906,78.2300407 C73.6555643,77.9064277 73.3319512,77.9064277 72.6847252,77.9064277 C69.412637,77.9064277 66.7877748,80.2076765 66.7877748,83.8033777 C66.7877748,87.399079 69.0890236,89.7003278 72.6847252,89.7003278 C75.9568134,89.7003278 78.5816753,87.399079 78.5816753,83.8033777 C78.5816753,83.1561517 78.5816753,82.8325383 78.2580623,82.1853123 C77.9344489,83.1561517 76.9276525,83.4797647 75.9568134,83.4797647 Z" id="Shape_11_-Copy-3" stroke="#7F4B4F" stroke-width="1.63669132" fill="#7F4B4F" fill-rule="nonzero" stroke-linecap="round" stroke-linejoin="round"></path>
                <g id="Group-8" transform="translate(69.808164, 112.905021)" fill="#BC776C" fill-rule="nonzero">
                    <circle id="Oval-Copy-3" cx="2.87656105" cy="3.90689467" r="2.69677598"></circle>
                    <circle id="Oval_1_-Copy-3" cx="21.0708097" cy="3.90689467" r="3.59570132"></circle>
                    <circle id="Oval_2_-Copy-3" cx="12.9085677" cy="15.700795" r="3.59570132"></circle>
                </g>
                <path d="M39.2111958,62.1932129 C39.2111958,66.4592352 39.2111958,75.124005 39.2111958,88.1875229 C39.2111958,107.7828 34.554091,105.561406 34.554091,118.008947 C34.554091,130.456487 21.1268801,142.183963 39.2111958,143.857424 C44.8246771,143.857424 52.3288894,139.118132 52.3288894,139.118132 C52.3288894,139.118132 64.0149252,140.501145 64.0149252,134.08193 C64.0149252,127.662716 57.3694491,128.189664 54.5746238,130.302911" id="Line-Copy-3" stroke="#7F4B4F" stroke-width="7.19140261" stroke-linecap="round" stroke-linejoin="round"></path>
                <path d="M30.4777872,166.780527 C36.6983506,154.69897 44.5575062,159.86122 48.2765088,159.553167 C51.9955114,159.245114 67.1179835,154.015787 75.2802254,166.780527 C72.8892551,172.191683 71.0326157,175.372911 69.7103067,176.324211 C63.8331461,180.552376 58.0566624,178.125987 53.6412733,178.125987 C50.2927373,178.125987 42.8450692,177.431393 34.4795499,172.262378 C33.3103009,171.539905 31.9763801,169.712621 30.4777872,166.780527 Z" id="Shape_16_-Copy-4" stroke="#7F4B4F" stroke-width="7.19140261" stroke-linecap="round" stroke-linejoin="round"></path>
                <path d="M70.6557858,169.919919 C69.1112836,169.127614 64.8438326,168.3025 60.1282378,168.345189 C57.0320806,168.373217 53.078157,169.066111 51.9079621,169.367287 C48.955505,170.127171 47.8478031,169.919919 47.2193253,169.919919 C46.5908476,169.919919 44.396151,169.367287 39.9241335,169.367287 C35.4521159,169.367287 33.9152169,170.35518 32.6078507,172.33153 C31.3004846,174.30788 30.2997856,181.16354 38.5541393,181.783157 C46.8034772,182.402398 43.8999429,177.183934 54.9078854,182.02469 C60.8875828,184.654269 66.3607631,182.363133 68.556645,179.290047 C70.4031319,176.705931 73.2143744,171.232434 73.2143744,171.232434 C73.2143744,171.232434 73.2143744,171.232434 70.6557858,169.919919 Z" id="Line-5-Copy-4" stroke="#7F4B4F" stroke-width="7.19140261" fill="#BC776C" fill-rule="nonzero" stroke-linecap="round" stroke-linejoin="round"></path>
                <line x1="91.922881" y1="61.5481069" x2="57.8082433" y2="62.1435803" id="Shape_18_-Copy-3" stroke="#7F4B4F" stroke-width="7.19140261" stroke-linecap="round" stroke-linejoin="round" transform="translate(74.865562, 61.845844) scale(-1, 1) rotate(1.000000) translate(-74.865562, -61.845844) "></line>
                <line x1="39.1099847" y1="61.6662774" x2="11.2792566" y2="61.6662774" id="Shape_18_-Copy-3" stroke="#7F4B4F" stroke-width="7.19140261" stroke-linecap="round" stroke-linejoin="round"></line>
            </g>
        </g>
    </g>
</svg>